<svg xmlns="http://www.w3.org/2000/svg" viewBox="0 0 74.08157 72.05495">
    <path d="M16.43415,64.64805a15.815,15.815,0,0,1-3.69814-.71452c-3.87933-1.71412-5.33977-4.12448-3.824-9.46014,1.227-4.31925,4.01915-7.82053,6.648-11.351,1.08125-1.45208,1.68235-2.87262,1.15929-4.61347a4.05017,4.05017,0,0,1,1.67579-4.99784c2.33794-1.57332,4.65487-3.18393,7.05716-4.65376,2.23989-1.37047,2.39773-1.89636,1.73224-4.43978-.94495-3.61145-1.75735-7.26339-2.46381-10.92935-.46074-2.39091,2.02373-5.98492,4.42506-6.55664a1.8631,1.8631,0,0,1,1.63736.50312,15.20717,15.20717,0,0,1,1.74733,4.04316c.95705,4.286,1.69485,8.62044,2.58852,12.92137a24.9071,24.9071,0,0,0,1.21613,4.04845,5.223,5.223,0,0,0,5.36824,3.6051c2.60506-.0158,5.09955.03893,7.35924-1.644a24.98217,24.98217,0,0,0,7.07781-7.92453c.52943-.95642.30276-2.45412.11566-3.65617-.293-1.88206-.8345-3.72656-1.29352-5.58134-.50622-2.04554-.10365-3.01118,1.667-3.89459,1.43489-.71591,2.72058-.39914,3.79929,1.28068,3.52758,5.4933,4.60761,11.65384.67524,18.32375a17.64678,17.64678,0,0,1-8.9567,7.55546c-1.90874.77562-3.92337,1.29279-5.823,2.08733a2.38665,2.38665,0,0,0-1.169,1.55646,11.04018,11.04018,0,0,0-.08084,3.236c.66206,6.0188-2.19189,10.40545-6.958,13.35344-3.76753,2.33036-8.0285,3.88669-12.13515,5.63447A40.58972,40.58972,0,0,1,20.082,64.19346,29.30705,29.30705,0,0,1,16.43415,64.64805ZM38.96137,41.29767a4.17929,4.17929,0,0,0-2.17917-4.325c-1.88469-1.04734-3.7108-2.20123-5.60834-3.22351a3.2505,3.2505,0,0,0-1.68974-.24341c-3.10181.22075-6.01524,3.214-6.59145,6.24945a29.19686,29.19686,0,0,1-2.06549,6.5717c-.88157,1.942-2.34927,3.60958-3.36416,5.50241a11.62669,11.62669,0,0,0-1.19217,3.71576,1.59921,1.59921,0,0,0,1.7351,1.95586,20.59889,20.59889,0,0,0,4.9024-.60472A36.83925,36.83925,0,0,0,33.6352,51.81185C37.32845,49.22137,38.752,45.63507,38.96137,41.29767Z"/>
</svg>
