<svg xmlns="http://www.w3.org/2000/svg" viewBox="0 0 63.27584 34.54859">
    <path d="M32.63436.09348c12.58088-.885,22.191,4.55688,28.4579,14.47586a16.78286,16.78286,0,0,1,2.13307,6.772c.3821,3.10336-1.448,5.4483-3.99466,6.97595a41.04756,41.04756,0,0,1-12.50732,4.62952,58.4146,58.4146,0,0,1-8.51756,1.1709,73.60853,73.60853,0,0,1-7.83333.41667,52.43416,52.43416,0,0,1-8.15362-.8246c-6.0598-1.1422-12.333-1.75353-17.617-5.4457a20.93389,20.93389,0,0,1-2.54511-1.9963c-2.28189-2.19206-2.7208-4.47063-1.036-7.17218a26.66715,26.66715,0,0,1,4.48068-5.631C11.00484,8.44989,16.98367,4.0467,24.19859,1.81113A41.42115,41.42115,0,0,1,32.63436.09348Zm-.09522,26.44088c4.13628-.12577,7.81192.09227,11.811-1.31769a34.27123,34.27123,0,0,0,7.23083-3.16812c2.62546-1.69288,2.84166-4.54207.90419-6.93572C48.18809,9.804,43.572,6.93665,36.62247,7.03436a46.68465,46.68465,0,0,0-6.5.66667,32.349,32.349,0,0,0-11.25781,4.33481c-3.03126,1.8553-6.06552,3.81945-8.08476,6.89767-1.12436,1.714-1.01554,1.97594.63293,3.15855,4.07534,2.92364,8.95866,3.25085,13.63092,4.11831A44.66532,44.66532,0,0,0,32.53913,26.53436Z"/>
    <path d="M33.77468,22.69948c-2.19056-.15958-4.18909-.14286-5.8651-1.68008-2.29171-2.10194-1.985-4.65982-.20761-7.1884a7.57673,7.57673,0,0,1,4.6705-3.21331,7.89463,7.89463,0,0,1,6.75,1.25,9.92522,9.92522,0,0,1,3.161,3.87984c.788,2.0142-.35864,4.21-2.42786,5.48656A9.78457,9.78457,0,0,1,33.77468,22.69948Z"/>
</svg>
