<svg xmlns="http://www.w3.org/2000/svg" viewBox="0 0 60.06167 53.06239">
    <path d="M7.24587,10.65781c.00669-1.60929.061-3.27072,1.86285-3.995,1.34821-.542,3.69292.50973,4.52474,2.3504a14.68046,14.68046,0,0,1,1.27217,5.25328c.19768,4.31908.071,8.65208.15281,12.978a27.011,27.011,0,0,0,.48565,3.69488c.58053,3.64489,2.59266,4.85779,6.619,5.5952,3.5717.65414,14.176,1.75874,15.87452,2.01492a2.60064,2.60064,0,0,0,3.14245-2.18254A64.9644,64.9644,0,0,0,43.24,18.331c-.16154-3.29054-1.494-4.287-4.8395-4.32392-.9133-.01007-1.82765.01056-2.74056.04352-2.90383.10483-3.2752.32117-3.83844,3.084-.3955,1.94-.51778,3.93538-.76973,5.90505a22.92583,22.92583,0,0,1-.49458,3.44526c-.58341,2.02132-1.60213,2.46257-4.36406,2.15654-1.9646-.21768-2.49811-.77945-2.73523-2.8514-.24572-2.14715.381-12.31453,1.22822-15.29135.84473-2.968,3.84473-3.968,6.27363-3.94727,1.41523.01209,2.84187-.12219,4.24333.01529,2.44842.24018,11.36751,1.02807,13.37107,1.93806,2.87506,1.30581,4.14827,2.63509,3.96269,5.87058-.29513,5.14557-.7918,10.28-1.23154,15.41667-.16311,1.90536-.48758,3.79919-.59716,5.7064-.31567,5.49346-2.93239,8.33046-8.31634,9.618-3.39523.81195-6.47328.52355-10.00688.05622-4.85408-.642-6.24012-.65486-9.31086-1.25418a55.26628,55.26628,0,0,1-9.77-2.61159,8.80514,8.80514,0,0,1-5.97561-8.67124q.00063-5.49391.00009-10.98783C7.29935,21.6478,7.23065,14.32107,7.24587,10.65781Z"/>
</svg>
