<svg xmlns="http://www.w3.org/2000/svg" viewBox="0 0 39.03828 44.9048">
    <path d="M39.03742,9.44447c.04571,4.87044-1.7803,9.28011-3.56184,13.66195A43.9425,43.9425,0,0,1,21.87932,41.26118,16.938,16.938,0,0,1,11.47565,44.9039a4.67879,4.67879,0,0,1-4.78213-3.28758A52.98542,52.98542,0,0,1,4.17144,33.5376C2.7986,26.68578,1.65049,19.78835.462,12.90063c-.254-1.4719-.31259-2.979-.43377-4.472A6.08484,6.08484,0,0,1,4.05495,1.9141,17.49757,17.49757,0,0,1,9.02756.49947a96.775,96.775,0,0,1,10.57681-.489c2.662.09374,4.89511.34426,7.53666.59769A65.61068,65.61068,0,0,1,34.84662,2.058C38.132,2.7779,39.01924,5.20784,39.03708,8.196,39.03956,8.61217,39.03742,9.02833,39.03742,9.44447ZM11.70449,5.95354c-3.279.119-4.14919,1.01174-4.08381,4.23a18.63559,18.63559,0,0,0,.2338,2.72767c1.26235,7.44793,2.55806,14.8902,3.82559,22.33726.35279,2.07275,1.47679,2.79879,3.29737,1.82957a11.0735,11.0735,0,0,0,2.61464-2.23974c.85646-.89738,1.56224-1.93649,2.36856-2.88416A50.42463,50.42463,0,0,0,30.95947,10.40411c.77192-3.34291.6012-3.39262-2.91611-3.47144-2.73713-.06134-5.48059-.1002-8.20615-.32882C17.96047,6.44643,12.53489,5.92341,11.70449,5.95354Z"/>
</svg>
