<svg xmlns="http://www.w3.org/2000/svg" viewBox="0 0 27.60396 67.79432">
    <path d="M.09877,60.47546a13.5208,13.5208,0,0,1,3.758-9.20254c1.25361-1.4399,1.18835-2.53393.04416-4.1053C-.40862,41.24921-.92986,34.652,1.59654,27.98708c.863-2.2767,2.93232-4.17665,4.70674-5.99925,1.19842-1.231,1.49861-2.08922.501-3.59521C4.80623,15.37633,3.26447,12.21933,4.02642,8.33989,5.38723,1.41148,14.3723-2.378,20.13343,1.6435a13.50032,13.50032,0,0,1,5.50368,14.23186,11.32429,11.32429,0,0,1-1.57594,3.34208,5.77292,5.77292,0,0,0-.15456,6.91617c2.79459,4.54447,4.48757,9.57877,3.32705,14.98156A20.43457,20.43457,0,0,1,24.227,47.85631c-2.10408,3.1893-2.28523,4.00191-.46337,7.21732a15.072,15.072,0,0,1,2.385,8.28553c-.155,2.82168-2.23743,4.54355-4.84378,4.06336A3.62365,3.62365,0,0,1,18.11337,64.366a11.20776,11.20776,0,0,0-1.07-3.81447,6.47119,6.47119,0,0,0-3.07963-2.58338c-1.44076-.47882-2.42291.927-3.07871,2.06594a17.91077,17.91077,0,0,0-1.6144,3.901C8.12833,67.84851,2.75411,68.95241.84877,66.47546-.40123,64.85046.09877,61.85575.09877,60.47546ZM18.56442,36.65865a25.8431,25.8431,0,0,0-1.1248-4.77477c-1.4302-3.24681-4.41114-3.50828-6.5959-.73764-2.64274,3.35143-2.2274,9.90822.817,12.89793,1.41832,1.39284,2.04263,1.45965,3.59933.15057A8.93777,8.93777,0,0,0,18.56442,36.65865ZM12.273,13.09771a4.03782,4.03782,0,0,0,1.16011,3.69307,1.75565,1.75565,0,0,0,2.4246.10607c1.80067-1.36207,2.32656-4.748,1.33228-6.7849-.72591-1.48711-2.34907-1.45907-3.45728-.2151A5.20847,5.20847,0,0,0,12.273,13.09771Z"/>
</svg>
