<svg xmlns="http://www.w3.org/2000/svg" viewBox="0 0 48.25967 35.39964">
    <path d="M48.25428,3.2777c.03917,1.91483-1.19017,3.69584-2.701,5.289-4.178,4.4056-8.35825,8.81077-12.62469,13.13012q-5.77969,5.85136-11.75321,11.51032c-2.95991,2.81068-5.55629,2.96509-8.59168.1961A71.30786,71.30786,0,0,1,.82048,19.87161C.14332,18.83763-.48206,17.53069.536,16.72053a3.7743,3.7743,0,0,1,3.21287-.34083A59.942,59.942,0,0,1,10.11,19.76958c2.31128,1.29667,4.58345,2.664,6.91009,3.9319a2.49869,2.49869,0,0,0,3.16006-.66754c2.78319-2.74631,5.59833-5.46022,8.382-8.206,4.2647-4.20671,8.50295-8.4403,12.776-12.63852C42.52765,1.02064,43.74983-.11374,45.6413.00916,47.56088.13388,48.33263.91594,48.25428,3.2777Z"/>
</svg>
