<svg xmlns="http://www.w3.org/2000/svg" viewBox="0 0 64.08708 71.08553">
    <path d="M6.21435,17.19117c.3781-1.62927,1.51072-3.27221,3.10414-3.09988,1.10616.11963,1.67553.65955,2.44968,1.82137a10.83019,10.83019,0,0,1,.85832,3.87339c.09369,1.66039.29669,3.412.31068,5.07694.04658,5.54587,2.3832,6.46049,6.15781,7.31182a29.50421,29.50421,0,0,0,5.22555.29607c1.22641.05048,1.91876-.5536,1.87266-1.78378-.14264-3.80663-.13489-7.634-.562-11.41068-.437-3.86423-.73777-7.43349,1.68408-10.98027,2.0029-2.93322,6.40165-2.18467,7.83994.65158,1.31131,2.58586,1.84177,5.19975.51988,8.121A27.63311,27.63311,0,0,0,33.5238,29.50383C33.572,31.013,34.227,31.644,35.635,31.61488c2.07911-.043,4.16526-.03687,6.23407-.21669,3.04185-.2644,3.90911-1.18994,4.091-4.26275.12785-2.15973-.01221-4.34169.21878-6.48665a10.81707,10.81707,0,0,1,1.2056-3.9819c.89248-1.6182,2.57929-1.91262,3.74928-.47194,1.801,2.21772,3.90108,13.36743,1.084,19.10026a6.20971,6.20971,0,0,1-5.36948,3.53436c-2.8145.26478-5.63194.49871-8.44882.73755-.41409.03511-.83335.00661-1.2482.036-3.8869.27576-4.61492,1.65913-2.21919,4.85772a17.9889,17.9889,0,0,0,4.32347,3.66557,32.23888,32.23888,0,0,0,4.1964,2.187c3.96375,1.94173,5.8112,5.09331,5.381,9.49569a15.88246,15.88246,0,0,1-.75238,3.83648,2.56919,2.56919,0,0,1-2.65889,1.87173,3.16265,3.16265,0,0,1-2.90183-2.0326,13.7252,13.7252,0,0,1-1.12246-3.79835,3.77024,3.77024,0,0,0-2.29639-3.27452c-2.02547-.9641-3.97964-2.09339-6.049-2.94654-3.95269-1.62958-5.94248-4.76735-6.62643-8.72569-.78685-4.55384-.73689-4.31977-5.57646-4.99595-2.87758-.40205-5.75689-.80025-8.621-1.28524A14.63327,14.63327,0,0,1,9.379,37.55252C7.30352,36.737,5.84857,35.3647,5.6333,33.01028,5.36875,30.117,5.67284,19.52457,6.21435,17.19117Z"/>
</svg>
