<svg xmlns="http://www.w3.org/2000/svg" viewBox="0 0 42.12761 54.0059">
    <path d="M.00432,5.43794c0-.16657-.00121-.33315.00019-.49972C.01646,3.51164-.105,1.96088,1.71093,1.49486A4.3652,4.3652,0,0,1,6.87135,3.56838,21.42636,21.42636,0,0,1,8.19688,7.323c.61738,2.4031.62978,2.53492,2.93412,1.35109,2.72736-1.40116,3.77128-2.05364,6.46639-3.52147,2.32005-1.26355,5.66667-3,8.62152-4.58706,2.04461-1.09817,2.985-.61448,3.88148,1.60242a43.16708,43.16708,0,0,1,1.979,6.64861c1.98339,8.75971,8.61376,34.96238,9.72628,39.41688.625,2.50248.40721,4.35754-1.25249,5.30882-1.68053.96322-4.01118.39734-5.56823-1.43723-.46923-.55286-1.813-4.98919-3.13761-8.03579-1.66667-3.83333-2.007-8.12257-5.25-6.33333-4.83333,2.66667-8.54485,4.31107-12.41667,6.33333-3.10337,1.6209-2.464,2.37194-2.75,4.83333-.27134,2.33482-.25,1.41667-.39755,3.06641-.1617,1.808-2.95543,1.47559-4.37668.75065-1.04315-.53207-2.3091-4.06705-2.63528-6.3354-1.31442-9.14087-1.335-18.42242-2.14469-27.62114C1.58564,15.45859.87,12.19182.36164,8.90571.184,7.75771-.03347,5.44266.00432,5.43794Zm11.50974,18.6314c6-3.08333,8.41667-4.58333,12.91667-6.91667,1.12925-.58554-.77924-6.277-1.83333-5.75-6,3-8.08333,4.25-12.16667,6.16667C9.41583,18.04571,10.54766,24.566,11.51406,24.06933Zm-1.33333,9.33333c-.68593.38412.71733,6.49824,1.5,6.08333,6.91667-3.66667,14.08333-7.33333,14.75-8,.63738-.63738-.215-6.68415-1.58333-6C19.51406,28.15267,16.43073,29.90267,10.18073,33.40267Z"/>
</svg>
