<svg xmlns="http://www.w3.org/2000/svg" viewBox="0 0 41.67989 54.58853">
    <path d="M.01642,9.4485A10.20924,10.20924,0,0,1,.75679,6.066,4.43331,4.43331,0,0,1,4.42373,3.04133c1.30744-.15554,3.269,1.42134,3.76473,3.20151a15.40827,15.40827,0,0,1,.52956,4.429c-.12023,5.24344-.557,10.48531-.51789,15.72511a44.65818,44.65818,0,0,0,2.54549,15.184,9.06613,9.06613,0,0,0,5.027,5.57372,13.05128,13.05128,0,0,1,2.762,1.68812,2.97753,2.97753,0,0,1,1.29751,3.498,3.42686,3.42686,0,0,1-3.29439,2.237c-5.53131.20778-9.87494-2.57286-12.35262-7.94212C1.44253,40.69219.59293,34.36626.3543,27.923.25576,25.26233-.0772,12.94106.01642,9.4485Z"/>
    <path d="M41.65611,21.804a47.48653,47.48653,0,0,1-2.63767,18.19973c-2.013,5.47379-5.23933,10.21238-10.482,13.18792a7.14187,7.14187,0,0,1-3.31068.86491c-2.25908.02729-3.09041-1.57639-1.91725-3.52593a13.04759,13.04759,0,0,1,1.95294-2.57977c4.47477-4.40652,6.073-10.16613,7.74008-15.94041,1.56936-5.43574.7238-10.91073.5692-16.37745-.0705-2.49308-.338-4.98007-.47932-7.4719a23.41792,23.41792,0,0,1-.02005-3.242c.1131-1.36926,1.82461-3.305,2.93767-3.38124C37.55433,1.432,38.27737,2.624,38.73265,3.73356A24.83844,24.83844,0,0,1,40.676,9.8659C41.23772,14.31576,41.58035,18.8048,41.65611,21.804Z"/>
    <path d="M20.75823,20.06192c0-4.66622-.10726-9.33634.062-13.99641a9.0992,9.0992,0,0,1,1.35168-4.41635c1.46944-2.27332,3.81678-2.1602,5.26979.11594a7.51351,7.51351,0,0,1,1.18805,3.2151,123.10089,123.10089,0,0,1-.08144,27.16345,17.27318,17.27318,0,0,1-.99745,3.85994,3.14106,3.14106,0,0,1-3.74935,2.17408,3.07419,3.07419,0,0,1-2.98953-3.36774c-.06686-4.91518-.02153-9.8319-.02153-14.748Z"/>
    <path d="M19.10018,21.60005q0,6.98948-.00458,13.97895a27.6593,27.6593,0,0,1-.10978,2.9909,3.78914,3.78914,0,0,1-3.40716,3.38846c-1.51234.09343-3.31706-1.47384-3.65568-3.193a5.25793,5.25793,0,0,1-.08421-.99372c-.02985-9.05935-.09768-18.119-.04083-27.17784a19.16989,19.16989,0,0,1,.86584-4.9007,4.64739,4.64739,0,0,1,1.47709-2.5063,5.41632,5.41632,0,0,1,3.35036-1.04744c1.49631.17364,1.60566,1.709,1.60982,2.986.01792,5.49152.00766,10.98313.00766,16.47471Z"/>
</svg>
