<svg xmlns="http://www.w3.org/2000/svg" viewBox="0 0 46.93616 56.42435">
    <path d="M9.741,56.4018c-1.16479,0-2.33294.05727-3.49375-.01072C2.732,56.18519.98011,54.60843.1346,51.25151c-.49875-1.98018.474-3.46349,1.51663-4.79774,3.992-5.10844,7.91458-10.293,12.22712-15.1242,7.5885-8.50113,15.4313-16.77575,23.199-25.116,1.64242-1.76348,3.406-3.41561,5.1414-5.09034C42.98.38863,43.68058-.53483,44.97733.3851c1.70787,1.2116,2.44852,2.49669,1.61659,3.95532a35.72683,35.72683,0,0,1-4.08117,5.94623C33.2855,20.76512,23.96,31.157,14.68121,41.59019q-2.14911,2.41648-4.18052,4.93684c-.97245,1.20159-.58859,2.52311.9079,2.85656a11.71336,11.71336,0,0,0,3.71579.2697c2.04841-.21719,4.07663-.65548,6.10063-1.06379,2.0991-.42347,3.52681-1.00465,5.64192-1.28592A3.75564,3.75564,0,0,1,29.42,48.407a3.38818,3.38818,0,0,1,.319,3.08966c-.185.70634-1.22617,1.40538-1.876,1.73091a24.1419,24.1419,0,0,1-8.81207,2.29618C15.94849,55.801,9.75456,56.52827,9.741,56.4018Z"/>
</svg>
