<svg xmlns="http://www.w3.org/2000/svg" viewBox="0 0 71.89714 27.79742"><title>Asset 2</title><g id="Layer_2" data-name="Layer 2"><g id="Layer_1-2" data-name="Layer 1"><path d="M71.89636,21.96512a4.6823,4.6823,0,0,1-3.16163,4.20055c-1.63406.42827-2.9631-.12677-3.83556-1.96771-1.42319-3.003-2.65487-6.09624-4.00986-9.13244-.25522-.5719-.43621-1.52281-1.07077-1.57954-.63833-.05708-.984.85354-1.342,1.37268C56.91826,17.118,55.509,19.48689,53.85311,21.67a31.7848,31.7848,0,0,1-4.36345,4.7635c-2.26223,1.9719-3.78468,1.82992-5.69173-.58477-2.21222-2.80109-4.17757-5.79726-6.24753-8.71056-2.63424-3.70748-2.7205-3.70984-5.01513.05471-.953,1.56353-1.79893,3.201-2.85632,4.68922a8.50676,8.50676,0,0,1-2.57024,2.57625c-2.67189,1.47691-4.41627,1.0928-6.36158-1.2429-1.32993-1.59682-2.48415-3.33884-3.74857-4.99174-1.06106-1.38706-2.14439-2.75863-3.2603-4.1018-1.42481-1.715-1.57137-1.72686-3.396-.332-1.78237,1.36262-3.5029,2.80864-5.31956,4.12269a5.57352,5.57352,0,0,1-2.46792,1.10971A2.77977,2.77977,0,0,1,.397,18.267a2.41727,2.41727,0,0,1-.23018-2.19415A50.27743,50.27743,0,0,1,4.008,9.9615C5.64933,7.76733,7.51764,5.74159,9.31377,3.66555A7.4424,7.4424,0,0,1,10.77606,2.3234C13.318.63387,13.75332.62923,15.74083,3.03856c2.43072,2.94659,4.71337,6.01591,7.04033,9.04729,1.4478,1.88609,2.26768,1.9335,3.5167-.083C28.13442,9.03768,29.5205,5.78017,31.602,2.9803,33.12513.93151,32.87217.94985,35.07,1.96243c2.92218,1.34627,4.89113,3.69765,6.59411,6.27828,1.46335,2.2175,2.659,4.61148,4.11895,6.83147,1.17086,1.7804,1.69348,1.80721,2.8173-.07179A81.44006,81.44006,0,0,1,58.855,1.83666c2.27055-2.46991,3.71845-2.53056,5.44768.31744a46.12584,46.12584,0,0,1,3.73589,7.5918c1.40555,3.72284,1.75694,4.94982,2.96158,8.7481C71.10005,18.80906,71.68763,20.93151,71.89636,21.96512Z"/></g></g></svg>