<svg xmlns="http://www.w3.org/2000/svg" viewBox="0 0 82.3865 56.1611">
    <path d="M0,7.27523C.02482,3.89149,1.73481,2.062,4.62422.79065A13.73862,13.73862,0,0,1,7.74714.03939a26.01661,26.01661,0,0,1,7.92862.99678,8.01307,8.01307,0,0,1,4.57633,4.02893c.34494.74583.5652,1.55475.958,2.27149a4.67369,4.67369,0,0,0,1.39829,1.917c4.12249,2.26337,6.742,5.8785,8.92165,9.84025,1.147,2.0847,2.808,2.92264,5.00212,3.62767,3.51733,1.13024,7.05677.71095,10.58872.99794C58.1361,24.61452,67.60575,28.349,73.42456,38.5704c2.62907,4.61825,5.44723,9.12866,8.16162,13.69868.64849,1.09181,1.39488,2.36883.04933,3.33639a2.7333,2.7333,0,0,1-3.67055-.333c-2.40314-2.5094-4.77477-5.06236-6.971-7.75135A50.73112,50.73112,0,0,1,67.814,42.46357c-2.81441-4.43233-6.19186-8.292-11.40036-9.89188A59.88711,59.88711,0,0,0,49.154,31.16476c-6.15388-1.07944-12.38508-.90864-18.59234-1.166A6.33757,6.33757,0,0,1,25.514,26.7212c-1.23877-1.96369-2.22425-4.08593-3.35175-6.12154A29.51943,29.51943,0,0,0,20.23691,17.411a5.257,5.257,0,0,0-4.73273-2.28281,27.50838,27.50838,0,0,1-4.98716-.027,29.53827,29.53827,0,0,1-6.48983-1.456C1.10744,12.53119.27266,9.86328,0,7.27523ZM11.29088,4.999c-.76537.01184-2.78968.71855-2.75,1.33333.0441.68307.18389,1.60289.75,1.91667a9.08309,9.08309,0,0,0,2.54167.83333,3.87888,3.87888,0,0,0,2.125-.25c.45833-.375.43324-1.15374,0-1.95833C13.37422,5.79065,12.75142,4.97639,11.29088,4.999Z"/>
</svg>
