<svg xmlns="http://www.w3.org/2000/svg" viewBox="0 0 90.49415 44.02641">
    <path d="M55.4628,42.004c-2.55383-.15718-20.99756-.8645-26.56819-1.07213A61.65909,61.65909,0,0,1,18.60235,39.596,5.506,5.506,0,0,1,15.464,37.09145C11.64779,30.46864,7.92312,23.7887,4.35759,17.02779,2.73588,13.95273,1.52869,10.6569.17541,7.44355A2.12348,2.12348,0,0,1,1.30533,4.68949C4.36338,3.02839,7.30751.96533,10.66745.06824,12.16268-.331,13.13571,1.10664,14.16268,2.169a84.92569,84.92569,0,0,1,8.72981,11.63132,104.06614,104.06614,0,0,0,6.40466,9.16973c1.81245,2.244,4.465,3.03856,7.35392,3.72,5.8005,1.36827,24.40347,1.84009,25.22792,1.84479a101.40936,101.40936,0,0,1,12.7574.47374c2.83333.41667,4.783.528,7.22079,2.50216,2.32526,1.88305,4.4893,3.96777,6.68676,6.00423a7.58811,7.58811,0,0,1,1.383,1.753c1.31165,2.27121.27043,4.41716-2.319,4.7531C86.70758,44.13793,59.9058,42.27742,55.4628,42.004Zm21.44988-4.085c.58971-.04673,1.6447-.58567,1.74973-1.19347.10789-.62433-1.98731-1.80969-2.53689-1.94593a37.44333,37.44333,0,0,0-6.14531-.728c-2.39-.249-16.04207-.60749-17.51049-.62633-6.24657-.08015-10.84108-.23045-17.07066-.57094A13.95855,13.95855,0,0,1,24.41929,27.2546c-3.27484-4.50927-6.41588-9.11547-9.6506-13.65424A51.33839,51.33839,0,0,0,11.538,9.49352c-.67044-.76259-1.56415-1.36274-2.62594-.55946-1.0676.80767-.63817,1.7766-.17624,2.6883a69.61937,69.61937,0,0,0,3.35372,6.403c3.01711,4.6727,6.09266,9.31684,9.36388,13.813,2.06034,2.83183,5.29961,3.624,8.63519,3.66655,4.74524.06059,21.056,1.1011,24.56112.93463C57.80976,36.28945,75.671,38.0174,76.91268,37.919Z"/>
</svg>
