<svg xmlns="http://www.w3.org/2000/svg" viewBox="0 0 40.80604 59.57994"><title>Asset 1</title><g id="Layer_2" data-name="Layer 2"><g id="Layer_1-2" data-name="Layer 1"><path d="M8.63065,41.51343c0-3.321-.09636-6.646.0458-9.96091a2.60308,2.60308,0,0,0-1.63324-2.54508c-3.195-1.74326-5.00112-4.57269-6.295-7.783C-.9898,16.912.31912,10.79534,4.47586,5.57553A18.41421,18.41421,0,0,1,8.36725,1.92595C10.33522.48044,12.134-.35946,14.7.14942c7.65481,1.51805,14.264,5.39705,20.91431,9.10389,2.86151,1.90555,4.609,5.08036,5.08358,9.12211a20.13059,20.13059,0,0,1-.58705,7.17809,13.616,13.616,0,0,1-6.885,8.60535,13.32946,13.32946,0,0,1-10.06466.86811c-3.00226-.97778-5.411.97717-5.53235,4.4803-.16118,4.65211-.1849,9.30917-.3655,13.9603a12.60676,12.60676,0,0,1-.72343,3.87873c-.665,1.77551-1.907,2.303-3.73812,2.22653-1.757-.07335-2.15328-1.31787-2.54123-2.60963A44.71684,44.71684,0,0,1,8.63065,41.51343ZM25.3951,29.25709c5.14857.60145,9.62255-6.7701,8.442-10.45193-.74129-2.31192-2.73533-3.47066-4.71567-4.538-2.02371-1.09072-2.73645-.946-3.89582.985-1.40833,2.34567-2.72992,4.7518-3.94537,7.203C19.26992,26.5095,20.9098,29.15613,25.3951,29.25709Zm-5.225-20.14885a2.81534,2.81534,0,0,0-1.40294-1.48188c-3.43777-1.8673-4.39144-1.71338-7.14191,1.06552a12.56242,12.56242,0,0,0-2.01733,2.51147c-.69456,1.21319-1.63368,2.54037-1.65752,3.83348A12.14346,12.14346,0,0,0,11.064,23.75359c1.35154,1.465,2.27674,1.37258,3.19718-.50542,1.68163-3.43111,3.244-6.92237,4.7819-10.42119C19.50654,11.77258,20.52248,10.6348,20.17007,9.10824Z"/></g></g></svg>