<svg xmlns="http://www.w3.org/2000/svg" viewBox="0 0 46.67146 55.87007">
    <path d="M44.92905,25.85525c-1.275,2.88659-2.74779,5.68992-4.22371,8.48248-1.42217,2.69089-1.29228,5.42036-.53847,8.24064a48.277,48.277,0,0,1,1.45171,6.32233,9.22471,9.22471,0,0,1-.41448,4.34639c-.83055,2.13208-3.09651,2.4174-4.59326.66222a9.04337,9.04337,0,0,1-1.49949-3.08694c-.8177-2.53436-1.40678-5.146-2.30225-7.64989a4.32465,4.32465,0,0,0-1.94456-2.36911c-4.17576-1.83667-6.14782-5.4357-7.84689-9.2899a26.886,26.886,0,0,1-1.33758-3.75437A6.50209,6.50209,0,0,0,16.662,23.11993c-1.664-.46217-3.404-.64738-5.105-.98153a1.54084,1.54084,0,0,0-2.06868,1.17518c-.91921,2.76186-2.02,5.463-2.95264,8.22077-.55284,1.63473.25893,2.91318,1.454,3.94479,2.14227,1.84933,4.41754,3.55546,6.45954,5.50733,2.57609,2.4624,5.026,5.06425,7.41411,7.71084a6.25572,6.25572,0,0,1,1.198,2.69518,3.74219,3.74219,0,0,1-2.09068,4.33888c-1.28782.4866-2.93646-.31646-3.645-2.26523a16.25119,16.25119,0,0,0-5.30751-6.79274c-2.03328-1.71087-4.33765-3.109-6.30535-4.88557a45.09981,45.09981,0,0,1-4.98728-5.4603c-1.08557-1.366-.82809-3.01939-.04435-4.485,3.42111-6.39748,4.694-13.30334,4.84786-20.45891a5.82757,5.82757,0,0,1,3.11945-5.2965c3.74684-2.17731,7.8867-3.00086,12.03082-4.32362A30.15864,30.15864,0,0,1,27.58549.1222a8.82233,8.82233,0,0,1,3.865.1807c7.665,3.13609,13.09858,8.86472,15.10925,16.68516C47.04356,18.86977,45.85466,23.75968,44.92905,25.85525ZM25.48662,10.57088a57.27741,57.27741,0,0,0-8.20218,2.234,17.70059,17.70059,0,0,0-4.1976,2.12557c-1.032.67086-2.0771,1.596-1.61739,3.07665.41986,1.35231,1.686,1.43846,2.8508,1.60521,2.85173.40823,5.70632.79966,8.55007,1.25795a5.37791,5.37791,0,0,1,1.82738.70072,8.98267,8.98267,0,0,1,4.13848,6.24728,69.15924,69.15924,0,0,0,1.61126,6.78914,3.16758,3.16758,0,0,0,2.0324,1.8c.54028.11182,1.59448-.7762,1.93738-1.459,1.26632-2.52172,2.06227-5.3108,3.53265-7.6921,2.65619-4.30173.891-7.73365-1.60543-11.1466C33.93075,12.80981,30.80985,9.88545,25.48662,10.57088Z"/>
</svg>
