<svg xmlns="http://www.w3.org/2000/svg" viewBox="0 0 42.23585 50.76953">
    <path d="M15.43234.01208C18.34516.0118,36.76245.98823,39.50434,1.117a2.78542,2.78542,0,0,1,2.73139,2.96867c.01318,1.45288-.97884,2.34462-2.86439,2.39221-3.90923.09867-7.82161.08871-11.72912.22545a2.9152,2.9152,0,0,0-2.03524.85108,4.69118,4.69118,0,0,0-.58222,3.32859c.23455,1.56365,1.0761,1.88791,1.80824,1.92922,3.15549.178,6.32059.177,9.48075.28385,2.40982.08149,3.21707,1.26776,2.55908,3.58761-.42063,1.483-1.49662,1.85909-2.86647,1.85543-3.24682-.00866-6.494-.0256-9.74046.01072-3.09571.03463-3.25509.2128-3.424,3.20832-.01875.33239-.02942.6662-.06919.9963-.56341,4.67519-.10379,3.82782,3.81571,4.27559,1.645.18792,3.32564.05549,4.9897.08807a13.62876,13.62876,0,0,1,2.23608.13405c1.48448.27853,2.62105,1.54607,2.361,2.72883-.3028,1.37718-1.02756,2.494-2.65868,2.517-2.99636.04242-5.99337.03849-8.9898.07815-2.99939.0397-3.31018.27167-3.52357,3.21441-.2465,3.39937-.54547,10.54566-.55025,10.71209-.0819,2.84976-1.08807,4.3749-3.12855,4.26088-2.33745-.13061-4.26793-.97407-4.371-4.39188-.07742-2.56773.2666-5.14814.42217-7.72295.05516-.91291.15512-1.82606.15319-2.73893-.007-3.29793-.09594-3.36017-3.32028-3.406-2.32911-.03309-4.6591-.0784-6.98585-.182C1.12731,32.22847.08274,31.4039.00323,29.91292c-.07335-1.37536,1.10905-2.55678,3.03952-2.65848,2.9896-.15749,5.98975-.10772,8.985-.166,2.57413-.05006,2.83927-.33669,2.82192-2.91188-.03062-4.54379-.03146-4.51183-4.46926-4.62724-2.63131-.06844-5.29145.19062-7.77136-1.20567C.88645,17.37376.00545,16.39171.3205,14.9375c.39349-1.81631,1.76866-1.90951,3.28877-1.888,3.66158.05184,7.3249.06307,10.98636.01022,2.29075-.03307,2.52418-.31285,2.78219-2.573.06606-.5787.13385-1.16.1479-1.74135.05541-2.29282-.76226-3.152-3.09285-3.23435-3.73956-.13213-7.47915-.27668-11.22-.35217C1.78665,5.13012.74781,4.64231.42706,3.19966.057,1.53522,1.44065,1.00178,2.52838.54912A8.82665,8.82665,0,0,1,5.69555.03471C8.9401-.02692,12.18657.01236,15.43234.01208Z"/>
</svg>
