<svg xmlns="http://www.w3.org/2000/svg" viewBox="0 0 75.29662 29.76932">
    <path d="M64.30837,4.02835c4.20254-.31316,6.424,1.899,8.48839,5.11021,4.3438,6.75692,3.06166,14.85535-4.12022,18.54035a14.50433,14.50433,0,0,1-3.41667,1.25c-.89511.16586-1.387.22011-3.25.58333-3.43831.67034-5.75451.02958-7.84043-1.92115-2.97017-2.77767-5.72459-5.79235-8.4797-8.78987a4.851,4.851,0,0,0-3.42987-1.95565,31.04573,31.04573,0,0,0-6.08333-.5c-3.83333.16667-7.39938,2.59656-10.85944,5.90758-1.43985,1.37783-2.73171,2.90892-4.13332,4.32839-3.1094,3.149-9.60688,3.99242-13.20061.03A33.388,33.388,0,0,1,.12194,11.54923C-.40011,9.34786.83143,7.51689,2.34509,6.26889a52.88338,52.88338,0,0,1,8.383-5.79314c1.28641-.69517,3.27669-.51366,4.82861-.17948,1.775.38221,2.091,2.10388.78636,3.41959C15.23565,4.83261,13.9685,5.7915,12.76593,6.813c-.4438.377-.93324.70378-1.3539,1.1039-3.32619,3.16383-3.483,4.17955-1.27379,8.20094.52.94662,1.07236,1.87563,1.61592,2.80919,1.27576,2.1911,3.40723,2.72779,5.40823,1.19312,2.37478-1.82135,4.66592-3.75531,6.94436-5.69788A17.81087,17.81087,0,0,1,36.11687,9.96017c3.22634-.03125,4.80967-.44792,8.56993.94119a17.734,17.734,0,0,1,5.10461,3.00229c2.74487,2.28222,5.3009,4.799,7.85711,7.29835,2.07768,2.03145,3.15672,2.26655,5.74072.96037a8.15842,8.15842,0,0,0,3.99207-3.95262,5.702,5.702,0,0,0-2.04118-7.26508,8.178,8.178,0,0,0-2.58026-.18242,39.96915,39.96915,0,0,0-4.59786.94793c-1.65807.42414-4.15192-.36783-4.6826-1.7063-.5021-1.26638.26856-3.024,1.94567-3.90234C58.08763,4.70719,60.91026,4.28157,64.30837,4.02835Z"/>
</svg>
