<svg xmlns="http://www.w3.org/2000/svg" viewBox="0 0 48.67158 42.81372">
    <path d="M42.36437,12.74389a13.03375,13.03375,0,0,1,4.64054,1.23237,2.63615,2.63615,0,0,1,1.66667,2.5,2.84975,2.84975,0,0,1-2.02085,2.429c-3.371,1.46732-7.42169,1.1645-10.81248,1.4043-3.204.2266-6.11539.49431-9.30573.92327-1.23188.16563-1.25128,1.123-1.25949,2.0806-.03,3.4963.03885,6.999-.15922,10.48623a32.80423,32.80423,0,0,1-1.05567,6.11395c-.45408,1.79809-2.02546,3.00866-3.31028,2.89239A3.99635,3.99635,0,0,1,17.667,39.32685c-.1853-3.40477-.18153-6.8195-.28312-10.2293-.057-1.912-.07316-3.83281-.28128-5.73061-.2289-2.08736-.61878-2.28989-2.75092-2.31548-3.49514-.04194-6.99-.12757-10.484-.22625a5.74827,5.74827,0,0,1-1.96047-.30363c-2.14858-.86905-2.53672-3.15907-.88378-4.82945A6.13874,6.13874,0,0,1,5.6798,13.66991q4.62.08266,9.24271-.01505c2.53923-.05421,2.75664-.36109,3.00653-2.91076.178-1.81665.40209-3.63395.72189-5.43026C19.05947,3.019,19.74747,1.44439,21.68265.40237,22.766-.181,24.38452-.23314,25.06244.94391c1.51191,2.6251,1.27969,5.46,1.05561,8.28016-.23547,2.9635-.29315,3.06371,2.76751,3.24987C31.45566,12.63026,40.47235,12.53247,42.36437,12.74389Z"/>
</svg>
