<svg xmlns="http://www.w3.org/2000/svg" viewBox="0 0 49.36452 49.02675">
    <path d="M26.78923.00315c11.81914-.07539,22.19029,9.93915,22.55251,21.414.39773,12.59989-4.39212,21.00224-16.02206,25.83829-8.61951,3.58424-16.83334,1.50275-24.01927-4.20753C2.14681,37.36334-.87557,29.69567.21781,20.7294A21.55836,21.55836,0,0,1,13.28139,2.8413,30.27183,30.27183,0,0,1,26.78923.00315Zm-1.6124,6.6673a37.00006,37.00006,0,0,0-10.7606,3.49275c-2.05829,1.06922-2.0027,2.26915.01981,3.34858q5.15624,2.75191,10.4288,5.28179a2.42414,2.42414,0,0,0,2.101-.03517c2.965-2.40576,5.83678-4.92817,8.69883-7.458.88054-.77831.556-1.411-.42928-1.8824A25.91723,25.91723,0,0,0,25.17683,6.67045Zm-.18272,34.60091a26.12169,26.12169,0,0,0,11.46431-4.54725c1.21078-.8559.19506-1.4068-.46452-1.84325-2.76636-1.83056-5.58617-3.58144-8.329-5.4459a2.20442,2.20442,0,0,0-2.95623.06253c-2.73654,2.41346-5.40809,4.90066-8.10225,7.3621-.74548.68108-.65394,1.2544.21655,1.75705A18.1259,18.1259,0,0,0,24.99411,41.27136ZM6.92043,23.29185c.61157,2.30354,1.07435,4.66082,1.88086,6.894.66864,1.85138,1.72494,2.12425,3.28621.94073,2.248-1.704,4.36754-3.57907,6.51915-5.40792,1.08921-.92582.86046-1.64161-.4034-2.20359-2.27575-1.01192-4.4639-2.26686-6.80931-3.0662C6.97752,18.94367,7.58583,18.154,6.92043,23.29185ZM41.901,23.00017c-.30453-1.20154-.65908-2.81213-1.131-4.38756-.31135-1.03937-1.00875-1.27851-1.88388-.52571-1.82817,1.57263-3.67556,3.12559-5.43691,4.77032a1.44682,1.44682,0,0,0-.10969,1.39551c1.86973,1.64176,3.76992,3.26279,5.783,4.72165,1.05565.765,1.89492.3,2.08575-1.05587C41.41664,26.43782,41.62533,24.95718,41.901,23.00017Z"/>
</svg>
