<svg xmlns="http://www.w3.org/2000/svg" viewBox="0 0 52.65393 51.29523">
    <path d="M16.32544,22.21253c-1.91464,0-3.8303.03849-5.74359-.01226-1.5123-.04011-2.39713.393-2.20827,2.13275a7.45556,7.45556,0,0,1-.444,3.69759c-.84867,2.54717-1.51266,2.80152-2.537,3.13466-1.37965.44868-2.07913-1.26891-2.372-2.4365a64.391,64.391,0,0,1-1.7787-8.78066C.66182,14.49451.35369,9.01076.00907,3.53474A3.20272,3.20272,0,0,1,.58878,1.24855C1.30268.58318,2.638-.21445,3.30217.053A4.39834,4.39834,0,0,1,5.6497,2.65674,63.43032,63.43032,0,0,1,6.72087,10.053c.1501,1.15314.2459,2.3143.42693,3.46227.42488,2.69441.70444,2.96748,3.49653,3.08449,2.32726.09753,4.66093.04073,6.98838.13548,3.20718.13056,12.27938.796,13.56369.9844a50.11984,50.11984,0,0,1,5.41884.981,2.887,2.887,0,0,1,2.17819,2.86479c-.50582,3.28084-1.03761,6.55848-1.62063,9.82641-.6276,3.51775-1.2445,7.04117-2.02979,10.52522-.3321,1.47341.21466,1.88251,1.41653,2.59468,3.0547,1.81009,6.3049,1.15069,9.499,1.24665,1.831.055,3.75839-.226,5.16438,1.2391a4.43456,4.43456,0,0,1,1.43083,2.62225c-.01838,1.2475-1.31983,1.58731-2.45616,1.59053A83.2188,83.2188,0,0,1,39.9749,51.062,50.34074,50.34074,0,0,1,31.174,48.76041a3.09528,3.09528,0,0,1-2.239-3.49084c.45814-4.20914.95668-8.41543,1.54058-12.60872.33209-2.3849.86093-4.74255,1.30667-7.11143.28216-1.49947-.09129-2.25894-1.85351-2.37812C25.39666,22.86478,16.33557,22.111,16.32544,22.21253Z"/>
</svg>
