<svg xmlns="http://www.w3.org/2000/svg" viewBox="0 0 21.48073 48.83056">
    <path d="M21.46648,7.98787c-.10257,4.35452-1.18817,8.28618-4.56624,10.75474A6.4474,6.4474,0,0,0,13.98786,24.056c-.4858,6.888-1.28949,13.75372-1.98219,20.62679-.23947,2.37609-1.244,3.92872-2.61307,4.1265C8.01779,49.00792,6.41786,47.80225,5.652,45.677c-.40963-1.13668.163-7.70515.31448-8.87665.73562-5.69022.72823-6.11453,1.63218-11.78122A6.72955,6.72955,0,0,0,6.592,19.58266c-1.52617-2.07382-2.88378-4.27078-4.3532-6.38748A10.94355,10.94355,0,0,1,.86141,2.3263,2.93759,2.93759,0,0,1,2.67283.64357a2.66,2.66,0,0,1,2.2648,1.04915c.87582,1.931,1.0258,3.32161,1.9756,6.0603.76132,2.19519,1.32087,3.87,3.09029,5.12529,1.96288,1.39259,4.0155.95926,4.83682-1.29047a17.386,17.386,0,0,0,.75114-4.35c.15264-1.254.0625-3.3125.307-4.32147.455-1.87776.78674-2.33979,2.06765-2.83976a2.334,2.334,0,0,1,2.55981,1.37518C21.2776,2.89513,21.549,4.48255,21.46648,7.98787Z"/>
</svg>
