<svg xmlns="http://www.w3.org/2000/svg" viewBox="0 0 80.25343 32.74731">
    <path d="M60.42522,32.47148c-3.65675,0-7.31638.09185-10.9695-.02329-4.5511-.14344-9.09907-.42191-13.64422-.70832-4.37518-.2757-8.74131-.71069-13.11875-.9283-2.29449-.11407-9.31484.95517-10.55361.86111a27.47987,27.47987,0,0,1-10.25591-2.587C.723,28.51054-.21831,27.61371.04435,26.13748c.24127-1.356,1.34286-1.71318,2.50976-2.03489,4.00436-1.104,6.99893.33372,10.483-.00908a22.64155,22.64155,0,0,0,4.88649-.5595c2.56483-.85506,2.69473-1.8807.63422-3.58163a47.34527,47.34527,0,0,0-4.465-3.17994c-2.72212-1.76-5.48-3.46572-8.24564-5.157A2.54111,2.54111,0,0,1,4.50523,8.47283,2.10583,2.10583,0,0,1,7.4937,6.8054c4.14928,1.14947,7.71436,3.453,11.29729,5.73322a27.81806,27.81806,0,0,1,8.71548,8.07594c1.68984,2.58324,1.38532,3.05069,7.15175,3.52838,4.18039.3463,8.39245.766,12.59766.87576,6.40111.16712,12.8105-.0071,19.21463.08532,1.7681.02551,2.5505-.60221,2.87456-2.31014q1.72142-9.07274,3.6275-18.11a11.2584,11.2584,0,0,1,1.23154-3.21449c.88023-1.5438,2.41594-1.65366,3.96133-1.30659a2.65,2.65,0,0,1,2.07793,3.01572c-.2214,3.14313-.68491,4.82-1.03625,9.39943-.74837,4.33394-1.72135,8.63053-2.66488,12.92847a17.19723,17.19723,0,0,1-1.22342,3.7908A6.005,6.005,0,0,1,69.66795,32.735C66.58876,32.804,60.42551,32.5648,60.42522,32.47148Z"/>
</svg>
