<svg xmlns="http://www.w3.org/2000/svg" viewBox="0 0 55.71673 48.23277">
    <path d="M31.8525,9.7725a49.832,49.832,0,0,0-5.14008,2.96805c-1.41967.78971-2.05791,3.2703-2.40392,4.70758-1.08333,4.5-1.07629,4.47686-2.25,8.33333-.58333,1.91667-2.08333,6.16667,1.85179,3.82311,3.8503-2.293,7.74725-4.5096,11.66224-6.69006a83.31171,83.31171,0,0,1,10.13357-5.23223,10.80181,10.80181,0,0,1,6.57906-.3306,4.83048,4.83048,0,0,1,3.26833,3.36656c.88369,2.26153-1.995,4.55936-4.43642,3.32437-2.786-1.40929-4.92183-.461-7.25525.697A265.66,265.66,0,0,0,18.69575,39.33371c-4.119,2.64079-8.21738,5.315-12.37643,7.89122A6.15918,6.15918,0,0,1,3.32223,48.2327C2.47856,48.24,1.12889,47.719.90394,47.10308a3.43023,3.43023,0,0,1,.51024-2.93145A36.107,36.107,0,0,1,5.9226,40.25711c1.358-1.09586,2.73971-2.16877,4.16942-3.16816,4.20539-2.93961,6.1587-7.28888,7.49767-11.99091a30.638,30.638,0,0,0,1.08-5.59373c.16366-1.81-.364-2.12223-2.0346-1.35146-3.92519,1.811-7.83266,3.66352-11.70369,5.587a3.55141,3.55141,0,0,1-3.95954-.32247c-1.38324-.95552-1.20638-2.50288.0033-3.63594A15.82386,15.82386,0,0,1,4.93228,17.292c7.895-4.2585,15.77813-8.54706,23.792-12.573A73.59994,73.59994,0,0,1,39.61086.49786c2.38951-.755,4.97313-.79882,7.15756.91544.96786.75954,2.30252,1.66626,1.57895,3.00607-.443.8203-2.28886.27877-4.28886.6121C42.68059,5.26112,35.95317,8.10282,31.8525,9.7725Z"/>
</svg>
